# xmcd
#
# Track frame offsets:
#  150
#  11950
#  30033
#  54943
#  74814
#  89103
#  116879
#  141737
#  187154
#  205008
#  226690
#  262768
#
# Disc length: 3778 seconds
#
# Revision: 0
# Processed by: cddbd v1.5.1PL2 Copyright (c) Steve Scherf et al.
# Submitted via: Collectorz.com_Music_Collector 6.11
#
DISCID=ae0ec00c
DTITLE=Eric Johnson - The Wiltern Theater 6th May 2006
DYEAR=2006
DGENRE=Hard Rock
TTITLE0=Summer Jam 
TTITLE1=My Back Page 
TTITLE2=Trademark
TTITLE3=Manic Depression
TTITLE4=On The Way To Love
TTITLE5=Good To Me 
TTITLE6=Morning Sun
TTITLE7=Rocktopus
TTITLE8=SRV
TTITLE9=A Little Bit Me, A Little Bit You
TTITLE10=Cliffs Of Dover Intro
TTITLE11=Cliffs Of Dover
EXTD=
EXTT0=
EXTT1=
EXTT2=
EXTT3=
EXTT4=
EXTT5=
EXTT6=
EXTT7=
EXTT8=
EXTT9=
EXTT10=
EXTT11=
PLAYORDER=
